<svg width="80" height="72" viewBox="0 0 80 72" fill="none" xmlns="http://www.w3.org/2000/svg">
<g clip-path="url(#clip0_950_4164)">
<path d="M10.8912 54.428C13.8102 56.4635 18.5428 56.4635 21.4619 54.428C24.3807 52.3925 24.3807 49.0923 21.4619 47.0567C18.5428 45.0212 13.8102 45.0212 10.8912 47.0567C7.97222 49.0923 7.97222 52.3925 10.8912 54.428Z" fill="#D4FE1B"/>
<path d="M41.1877 26.7861C45.5663 29.8393 52.6651 29.8393 57.0436 26.7861C61.422 23.7327 61.422 18.7825 57.0436 15.7293C52.6651 12.676 45.5663 12.676 41.1877 15.7293C36.8093 18.7825 36.8093 23.7327 41.1877 26.7861Z" fill="#D4FE1B"/>
<path d="M25.1051 40.6071C28.7538 43.1513 34.6696 43.1513 38.3183 40.6071C41.967 38.0626 41.967 33.9374 38.3183 31.3929C34.6696 28.8487 28.7538 28.8487 25.1051 31.3929C21.4564 33.9374 21.4564 38.0626 25.1051 40.6071Z" fill="#D4FE1B"/>
<path d="M1.64193 38.7642C3.83117 40.2908 7.38063 40.2908 9.56987 38.7642C11.7591 37.2376 11.7591 34.7625 9.56987 33.2358C7.38063 31.7092 3.83117 31.7092 1.64193 33.2358C-0.547311 34.7625 -0.547309 37.2376 1.64193 38.7642Z" fill="white"/>
<path d="M25.1051 11.1223C28.7538 13.6666 34.6696 13.6666 38.3183 11.1223C41.967 8.57789 41.967 4.45265 38.3183 1.90828C34.6696 -0.636093 28.7538 -0.636095 25.1051 1.90828C21.4564 4.45265 21.4564 8.57789 25.1051 11.1223Z" fill="white"/>
<path d="M10.8912 24.9433C13.8102 26.9788 18.5428 26.9788 21.4619 24.9433C24.3807 22.9077 24.3807 19.6075 21.4619 17.5721C18.5428 15.5366 13.8102 15.5366 10.8912 17.5721C7.97221 19.6075 7.97223 22.9077 10.8912 24.9433Z" fill="#D4FE1B"/>
<path d="M25.1051 70.0918C28.7538 72.6361 34.6696 72.6361 38.3183 70.0918C41.967 67.5474 41.967 63.4222 38.3183 60.8777C34.6696 58.3335 28.7538 58.3335 25.1051 60.8777C21.4564 63.4222 21.4564 67.5474 25.1051 70.0918Z" fill="white"/>
<path d="M60.4602 41.5285C64.8387 44.5816 71.9377 44.5816 76.3161 41.5285C80.6947 38.4753 80.6947 33.5249 76.3161 30.4717C71.9377 27.4184 64.8387 27.4184 60.4602 30.4717C56.0818 33.5249 56.0818 38.4753 60.4602 41.5285Z" fill="white"/>
<path d="M41.1877 56.2707C45.5663 59.324 52.6651 59.324 57.0436 56.2707C61.422 53.2175 61.422 48.2673 57.0436 45.2139C52.6651 42.1607 45.5663 42.1607 41.1877 45.2139C36.8093 48.2673 36.8093 53.2175 41.1877 56.2707Z" fill="#D4FE1B"/>
</g>
<defs>
<clipPath id="clip0_950_4164">
<rect width="79.6" height="72" fill="white"/>
</clipPath>
</defs>
</svg>
