<svg width="81" height="72" viewBox="0 0 81 72" fill="none" xmlns="http://www.w3.org/2000/svg">
<g clip-path="url(#clip0_950_4164)">
<path d="M11.5912 54.428C14.5102 56.4635 19.2428 56.4635 22.1619 54.428C25.0807 52.3925 25.0807 49.0923 22.1619 47.0567C19.2428 45.0212 14.5102 45.0212 11.5912 47.0567C8.67223 49.0923 8.67223 52.3925 11.5912 54.428Z" fill="white"/>
<path d="M41.8877 26.7861C46.2663 29.8393 53.3651 29.8393 57.7436 26.7861C62.122 23.7327 62.122 18.7825 57.7436 15.7293C53.3651 12.676 46.2663 12.676 41.8877 15.7293C37.5093 18.7825 37.5093 23.7327 41.8877 26.7861Z" fill="white"/>
<path d="M25.8051 40.6071C29.4538 43.1513 35.3696 43.1513 39.0183 40.6071C42.667 38.0626 42.667 33.9374 39.0183 31.3929C35.3696 28.8487 29.4538 28.8487 25.8051 31.3929C22.1564 33.9374 22.1564 38.0626 25.8051 40.6071Z" fill="white"/>
<path d="M2.34194 38.7642C4.53118 40.2908 8.08064 40.2908 10.2699 38.7642C12.4591 37.2376 12.4591 34.7625 10.2699 33.2358C8.08064 31.7092 4.53118 31.7092 2.34194 33.2358C0.152701 34.7625 0.152703 37.2376 2.34194 38.7642Z" fill="#D4FE1B"/>
<path d="M25.8051 11.1223C29.4538 13.6666 35.3696 13.6666 39.0183 11.1223C42.667 8.57789 42.667 4.45265 39.0183 1.90828C35.3696 -0.636093 29.4538 -0.636095 25.8051 1.90828C22.1564 4.45265 22.1564 8.57789 25.8051 11.1223Z" fill="#D4FE1B"/>
<path d="M11.5912 24.9433C14.5102 26.9788 19.2428 26.9788 22.1619 24.9433C25.0807 22.9077 25.0807 19.6075 22.1619 17.5721C19.2428 15.5366 14.5102 15.5366 11.5912 17.5721C8.67222 19.6075 8.67224 22.9077 11.5912 24.9433Z" fill="white"/>
<path d="M25.8051 70.0918C29.4538 72.6361 35.3696 72.6361 39.0183 70.0918C42.667 67.5474 42.667 63.4222 39.0183 60.8777C35.3696 58.3335 29.4538 58.3335 25.8051 60.8777C22.1564 63.4222 22.1564 67.5474 25.8051 70.0918Z" fill="#D4FE1B"/>
<path d="M61.1602 41.5285C65.5388 44.5816 72.6378 44.5816 77.0161 41.5285C81.3947 38.4753 81.3947 33.5249 77.0161 30.4717C72.6378 27.4184 65.5388 27.4184 61.1602 30.4717C56.7818 33.5249 56.7818 38.4753 61.1602 41.5285Z" fill="#D4FE1B"/>
<path d="M41.8877 56.2707C46.2663 59.324 53.3651 59.324 57.7436 56.2707C62.122 53.2175 62.122 48.2673 57.7436 45.2139C53.3651 42.1607 46.2663 42.1607 41.8877 45.2139C37.5093 48.2673 37.5093 53.2175 41.8877 56.2707Z" fill="white"/>
</g>
<defs>
<clipPath id="clip0_950_4164">
<rect width="79.6" height="72" fill="white" transform="translate(0.700012)"/>
</clipPath>
</defs>
</svg>
