<svg width="19" height="21" viewBox="0 0 19 21" fill="none" xmlns="http://www.w3.org/2000/svg">
<path d="M9.83342 13.0644V14.9802C9.00376 14.6869 8.11583 14.5969 7.2442 14.7179C6.37257 14.8388 5.54268 15.1671 4.82423 15.6753C4.10577 16.1834 3.51973 16.8565 3.11531 17.638C2.7109 18.4196 2.49991 19.2868 2.50008 20.1667L0.666748 20.1658C0.666464 19.0465 0.922426 17.9419 1.41502 16.9368C1.90762 15.9316 2.62377 15.0526 3.50861 14.367C4.39345 13.6815 5.42349 13.2075 6.51981 12.9816C7.61612 12.7556 8.74961 12.7837 9.83342 13.0635V13.0644ZM8.00008 11.9167C4.96133 11.9167 2.50008 9.4555 2.50008 6.41675C2.50008 3.378 4.96133 0.916748 8.00008 0.916748C11.0388 0.916748 13.5001 3.378 13.5001 6.41675C13.5001 9.4555 11.0388 11.9167 8.00008 11.9167ZM8.00008 10.0834C10.0259 10.0834 11.6667 8.44258 11.6667 6.41675C11.6667 4.39091 10.0259 2.75008 8.00008 2.75008C5.97425 2.75008 4.33342 4.39091 4.33342 6.41675C4.33342 8.44258 5.97425 10.0834 8.00008 10.0834ZM13.5001 15.5834V12.8334H15.3334V15.5834H18.0834V17.4167H15.3334V20.1667H13.5001V17.4167H10.7501V15.5834H13.5001Z" fill="#141414"/>
</svg>
