<svg width="20" height="20" viewBox="0 0 20 20" fill="none" xmlns="http://www.w3.org/2000/svg">
<path d="M14.5833 2.74984H18.25C18.4931 2.74984 18.7263 2.84641 18.8982 3.01832C19.0701 3.19023 19.1666 3.42339 19.1666 3.6665V18.3332C19.1666 18.5763 19.0701 18.8094 18.8982 18.9814C18.7263 19.1533 18.4931 19.2498 18.25 19.2498H1.74998C1.50686 19.2498 1.27371 19.1533 1.1018 18.9814C0.92989 18.8094 0.833313 18.5763 0.833313 18.3332V3.6665C0.833313 3.42339 0.92989 3.19023 1.1018 3.01832C1.27371 2.84641 1.50686 2.74984 1.74998 2.74984H5.41665V0.916504H7.24998V2.74984H12.75V0.916504H14.5833V2.74984ZM12.75 4.58317H7.24998V6.4165H5.41665V4.58317H2.66665V8.24984H17.3333V4.58317H14.5833V6.4165H12.75V4.58317ZM17.3333 10.0832H2.66665V17.4165H17.3333V10.0832Z" fill="#3D3D3D"/>
</svg>
