<svg width="21" height="21" viewBox="0 0 21 21" fill="none" xmlns="http://www.w3.org/2000/svg">
<path d="M16.4167 6.4165H21V8.24984H16.4167V6.4165ZM14.5833 10.9998H21V12.8332H14.5833V10.9998ZM17.3333 15.5832H21V17.4165H17.3333V15.5832ZM0.833344 20.1665C0.833344 18.2216 1.60596 16.3563 2.98123 14.9811C4.35649 13.6058 6.22176 12.8332 8.16668 12.8332C10.1116 12.8332 11.9769 13.6058 13.3521 14.9811C14.7274 16.3563 15.5 18.2216 15.5 20.1665H13.6667C13.6667 18.7078 13.0872 17.3089 12.0558 16.2774C11.0243 15.246 9.62537 14.6665 8.16668 14.6665C6.70799 14.6665 5.30904 15.246 4.27759 16.2774C3.24614 17.3089 2.66668 18.7078 2.66668 20.1665H0.833344ZM8.16668 11.9165C5.12793 11.9165 2.66668 9.45525 2.66668 6.4165C2.66668 3.37775 5.12793 0.916504 8.16668 0.916504C11.2054 0.916504 13.6667 3.37775 13.6667 6.4165C13.6667 9.45525 11.2054 11.9165 8.16668 11.9165ZM8.16668 10.0832C10.1925 10.0832 11.8333 8.44234 11.8333 6.4165C11.8333 4.39067 10.1925 2.74984 8.16668 2.74984C6.14084 2.74984 4.50001 4.39067 4.50001 6.4165C4.50001 8.44234 6.14084 10.0832 8.16668 10.0832Z" fill="#141414"/>
</svg>
