<svg width="21" height="20" viewBox="0 0 21 20" fill="none" xmlns="http://www.w3.org/2000/svg">
<path d="M10.25 20C4.727 20 0.25 15.523 0.25 10C0.25 4.477 4.727 0 10.25 0C15.773 0 20.25 4.477 20.25 10C20.25 15.523 15.773 20 10.25 20ZM6.75 12V14H9.25V16H11.25V14H12.25C12.913 14 13.5489 13.7366 14.0178 13.2678C14.4866 12.7989 14.75 12.163 14.75 11.5C14.75 10.837 14.4866 10.2011 14.0178 9.73223C13.5489 9.26339 12.913 9 12.25 9H8.25C8.11739 9 7.99021 8.94732 7.89645 8.85355C7.80268 8.75979 7.75 8.63261 7.75 8.5C7.75 8.36739 7.80268 8.24021 7.89645 8.14645C7.99021 8.05268 8.11739 8 8.25 8H13.75V6H11.25V4H9.25V6H8.25C7.58696 6 6.95107 6.26339 6.48223 6.73223C6.01339 7.20107 5.75 7.83696 5.75 8.5C5.75 9.16304 6.01339 9.79893 6.48223 10.2678C6.95107 10.7366 7.58696 11 8.25 11H12.25C12.3826 11 12.5098 11.0527 12.6036 11.1464C12.6973 11.2402 12.75 11.3674 12.75 11.5C12.75 11.6326 12.6973 11.7598 12.6036 11.8536C12.5098 11.9473 12.3826 12 12.25 12H6.75Z" fill="#141414"/>
</svg>
