<svg width="20" height="20" viewBox="0 0 20 20" fill="none" xmlns="http://www.w3.org/2000/svg">
<path d="M9.99998 19.1668C4.93723 19.1668 0.833313 15.0629 0.833313 10.0002C0.833313 4.93741 4.93723 0.833496 9.99998 0.833496C15.0627 0.833496 19.1666 4.93741 19.1666 10.0002C19.1666 15.0629 15.0627 19.1668 9.99998 19.1668ZM9.99998 17.3335C11.9449 17.3335 13.8102 16.5609 15.1854 15.1856C16.5607 13.8103 17.3333 11.9451 17.3333 10.0002C17.3333 8.05524 16.5607 6.18998 15.1854 4.81471C13.8102 3.43945 11.9449 2.66683 9.99998 2.66683C8.05506 2.66683 6.1898 3.43945 4.81453 4.81471C3.43926 6.18998 2.66665 8.05524 2.66665 10.0002C2.66665 11.9451 3.43926 13.8103 4.81453 15.1856C6.1898 16.5609 8.05506 17.3335 9.99998 17.3335ZM6.79165 11.8335H11.8333C11.9549 11.8335 12.0714 11.7852 12.1574 11.6993C12.2434 11.6133 12.2916 11.4967 12.2916 11.3752C12.2916 11.2536 12.2434 11.137 12.1574 11.0511C12.0714 10.9651 11.9549 10.9168 11.8333 10.9168H8.16665C7.55886 10.9168 6.97596 10.6754 6.54619 10.2456C6.11642 9.81584 5.87498 9.23295 5.87498 8.62516C5.87498 8.01737 6.11642 7.43448 6.54619 7.00471C6.97596 6.57494 7.55886 6.3335 8.16665 6.3335H9.08331V4.50016H10.9166V6.3335H13.2083V8.16683H8.16665C8.04509 8.16683 7.92851 8.21512 7.84256 8.30107C7.7566 8.38703 7.70831 8.5036 7.70831 8.62516C7.70831 8.74672 7.7566 8.8633 7.84256 8.94925C7.92851 9.03521 8.04509 9.0835 8.16665 9.0835H11.8333C12.4411 9.0835 13.024 9.32494 13.4538 9.75471C13.8835 10.1845 14.125 10.7674 14.125 11.3752C14.125 11.983 13.8835 12.5658 13.4538 12.9956C13.024 13.4254 12.4411 13.6668 11.8333 13.6668H10.9166V15.5002H9.08331V13.6668H6.79165V11.8335Z" fill="#3D3D3D"/>
</svg>
