<svg width="22" height="21" viewBox="0 0 22 21" fill="none" xmlns="http://www.w3.org/2000/svg">
<path d="M0.75 21C0.75 18.8783 1.59285 16.8434 3.09315 15.3431C4.59344 13.8429 6.62827 13 8.75 13C10.8717 13 12.9066 13.8429 14.4069 15.3431C15.9071 16.8434 16.75 18.8783 16.75 21H0.75ZM8.75 12C5.435 12 2.75 9.315 2.75 6C2.75 2.685 5.435 0 8.75 0C12.065 0 14.75 2.685 14.75 6C14.75 9.315 12.065 12 8.75 12ZM16.113 14.233C17.6426 14.6261 19.0093 15.4918 20.0183 16.7068C21.0274 17.9218 21.6274 19.4242 21.733 21H18.75C18.75 18.39 17.75 16.014 16.113 14.233ZM14.09 11.957C14.928 11.2075 15.5982 10.2893 16.0566 9.26275C16.515 8.23616 16.7513 7.12429 16.75 6C16.7521 4.63347 16.4026 3.28937 15.735 2.097C16.8676 2.32459 17.8865 2.93737 18.6185 3.8312C19.3504 4.72502 19.7502 5.84473 19.75 7C19.7503 7.71247 19.5982 8.41676 19.3041 9.06567C19.01 9.71459 18.5805 10.2931 18.0446 10.7625C17.5086 11.2319 16.8785 11.5814 16.1964 11.7874C15.5144 11.9934 14.7962 12.0512 14.09 11.957Z" fill="#141414"/>
</svg>
