<svg width="21" height="18" viewBox="0 0 21 18" fill="none" xmlns="http://www.w3.org/2000/svg">
<path d="M9.16666 11.4528V11.3959C9.16666 9.09694 11.0147 7.16277 13.5236 6.59902C13.1899 4.48886 10.9624 2.76644 8.15832 2.76644C5.11499 2.76644 2.74999 4.79502 2.74999 7.14811C2.74999 8.03636 3.07999 8.88977 3.70332 9.62127C3.73266 9.65611 3.77941 9.70744 3.84266 9.77252C4.38157 10.3264 4.70696 11.0532 4.76116 11.824C5.41574 11.4456 6.18013 11.3026 6.92724 11.4189C7.07941 11.4427 7.20407 11.461 7.29849 11.4739C7.91914 11.5545 8.54807 11.5471 9.16666 11.4519V11.4528ZM9.58557 13.2412C8.75166 13.3844 7.90096 13.4014 7.06199 13.2916C6.92303 13.2728 6.78429 13.2523 6.64582 13.2302C6.30324 13.1768 5.95281 13.2456 5.65582 13.4245L3.91049 14.4769C3.77607 14.5597 3.61866 14.5973 3.46132 14.5841C3.36617 14.5769 3.27336 14.551 3.18824 14.5079C3.10311 14.4648 3.02733 14.4053 2.96525 14.3328C2.90316 14.2603 2.856 14.1763 2.82645 14.0856C2.79691 13.9948 2.78556 13.8992 2.79307 13.804L2.93057 12.1714C2.94771 11.9667 2.92064 11.7606 2.85122 11.5672C2.78179 11.3737 2.67162 11.1975 2.52816 11.0504C2.45196 10.9727 2.37829 10.8926 2.30724 10.8102C1.43274 9.78352 0.916656 8.51669 0.916656 7.14719C0.916656 3.71519 4.15891 0.933105 8.15832 0.933105C11.88 0.933105 14.9444 3.34119 15.3542 6.44044C18.4452 6.58069 20.9 8.74586 20.9 11.3959C20.9 12.4895 20.482 13.5006 19.7734 14.3201C19.7267 14.3751 19.6671 14.4393 19.5947 14.5126C19.4788 14.6293 19.3896 14.7697 19.3333 14.9241C19.2769 15.0786 19.2548 15.2434 19.2683 15.4073L19.3792 16.7117C19.3849 16.7882 19.3753 16.865 19.3511 16.9378C19.327 17.0106 19.2886 17.0778 19.2384 17.1358C19.1881 17.1937 19.1269 17.2411 19.0583 17.2753C18.9896 17.3095 18.9149 17.3298 18.8384 17.335C18.711 17.3455 18.5837 17.3153 18.4745 17.2489L17.0601 16.4083C16.819 16.2656 16.5358 16.2108 16.2589 16.2534C16.1242 16.2744 16.0114 16.29 15.9216 16.3019C15.6319 16.3386 15.3349 16.3588 15.0333 16.3588C12.5638 16.3588 10.4518 15.0681 9.58557 13.2412ZM15.9812 14.442C16.4985 14.3624 17.0276 14.4173 17.5175 14.6015C17.646 14.0816 17.9124 13.606 18.2884 13.2247C18.3342 13.1789 18.3682 13.1422 18.3856 13.122C18.8338 12.6041 19.0667 12.0101 19.0667 11.3959C19.0667 9.74227 17.3222 8.26644 15.0333 8.26644C12.7444 8.26644 11 9.74227 11 11.3959C11 13.0496 12.7444 14.5254 15.0333 14.5254C15.2542 14.5254 15.4733 14.5108 15.6878 14.4833C15.7612 14.4741 15.8602 14.4604 15.9812 14.4411V14.442Z" fill="#141414"/>
</svg>
