<svg width="21" height="20" viewBox="0 0 21 20" fill="none" xmlns="http://www.w3.org/2000/svg">
<path d="M10 19.1668C4.93726 19.1668 0.833344 15.0629 0.833344 10.0002C0.833344 4.93742 4.93726 0.833499 10 0.833499C11.4233 0.832429 12.8272 1.16329 14.1002 1.7998C15.3732 2.4363 16.4802 3.36091 17.3333 4.50017H14.8492C13.7906 3.56678 12.4853 2.95866 11.0897 2.74878C9.69408 2.5389 8.26757 2.73618 6.98132 3.31694C5.69508 3.89771 4.60373 4.83728 3.83824 6.02292C3.07275 7.20856 2.66564 8.5899 2.66576 10.0012C2.66588 11.4125 3.07322 12.7937 3.8389 13.9792C4.60459 15.1648 5.69609 16.1042 6.98244 16.6847C8.26878 17.2652 9.69532 17.4623 11.0909 17.2522C12.4864 17.0421 13.7917 16.4337 14.8501 15.5002H17.3343C16.4811 16.6395 15.3739 17.5642 14.1007 18.2007C12.8275 18.8373 11.4234 19.168 10 19.1668ZM16.4167 13.6668V10.9168H9.08334V9.0835H16.4167V6.3335L21 10.0002L16.4167 13.6668Z" fill="#F2522E"/>
</svg>
