<svg width="20" height="22" viewBox="0 0 20 22" fill="none" xmlns="http://www.w3.org/2000/svg">
<path d="M10.25 13.252V21H0.25C0.24969 19.7789 0.528921 18.5739 1.0663 17.4774C1.60368 16.3809 2.38494 15.4219 3.35022 14.674C4.3155 13.9261 5.43918 13.4091 6.63515 13.1626C7.83113 12.9162 9.06766 12.9467 10.25 13.252ZM8.25 12C4.935 12 2.25 9.315 2.25 6C2.25 2.685 4.935 0 8.25 0C11.565 0 14.25 2.685 14.25 6C14.25 9.315 11.565 12 8.25 12ZM14.25 16V12.5L19.25 17L14.25 21.5V18H11.25V16H14.25Z" fill="#A3A3A3"/>
</svg>
