<svg width="19" height="18" viewBox="0 0 19 18" fill="none" xmlns="http://www.w3.org/2000/svg">
<path d="M15.25 18C14.3217 18 13.4315 17.6313 12.7751 16.9749C12.1187 16.3185 11.75 15.4283 11.75 14.5C11.75 13.5717 12.1187 12.6815 12.7751 12.0251C13.4315 11.3687 14.3217 11 15.25 11C16.1783 11 17.0685 11.3687 17.7249 12.0251C18.3813 12.6815 18.75 13.5717 18.75 14.5C18.75 15.4283 18.3813 16.3185 17.7249 16.9749C17.0685 17.6313 16.1783 18 15.25 18ZM4.25 7C3.79037 7 3.33525 6.90947 2.91061 6.73358C2.48597 6.55769 2.10013 6.29988 1.77513 5.97487C1.45012 5.64987 1.19231 5.26403 1.01642 4.83939C0.84053 4.41475 0.75 3.95963 0.75 3.5C0.75 3.04037 0.84053 2.58525 1.01642 2.16061C1.19231 1.73597 1.45012 1.35013 1.77513 1.02513C2.10013 0.700121 2.48597 0.442313 2.91061 0.266422C3.33525 0.0905301 3.79037 -9.6859e-09 4.25 0C5.17826 1.95616e-08 6.0685 0.368749 6.72487 1.02513C7.38125 1.6815 7.75 2.57174 7.75 3.5C7.75 4.42826 7.38125 5.3185 6.72487 5.97487C6.0685 6.63125 5.17826 7 4.25 7ZM16.821 0.515L18.235 1.929L2.68 17.485L1.266 16.071L16.82 0.515H16.821Z" fill="#141414"/>
</svg>
