<svg width="18" height="20" viewBox="0 0 18 20" fill="none" xmlns="http://www.w3.org/2000/svg">
<path d="M8.99998 15C12.662 15 15.865 16.575 17.607 18.925L15.765 19.796C14.347 18.116 11.847 17 8.99998 17C6.15298 17 3.65298 18.116 2.23498 19.796L0.393982 18.924C2.13598 16.574 5.33798 15 8.99998 15ZM8.99998 0C10.3261 0 11.5978 0.526784 12.5355 1.46447C13.4732 2.40215 14 3.67392 14 5V8C14 9.32608 13.4732 10.5979 12.5355 11.5355C11.5978 12.4732 10.3261 13 8.99998 13C7.6739 13 6.40213 12.4732 5.46445 11.5355C4.52677 10.5979 3.99998 9.32608 3.99998 8V5C3.99998 3.67392 4.52677 2.40215 5.46445 1.46447C6.40213 0.526784 7.6739 0 8.99998 0Z" fill="#141414"/>
</svg>
