<svg width="18" height="18" viewBox="0 0 18 18" fill="none" xmlns="http://www.w3.org/2000/svg">
<path d="M13.2135 4.476L14.3032 3.38625L15.3637 4.44675L14.274 5.5365C15.3508 6.88438 15.8707 8.59341 15.7268 10.3126C15.5829 12.0318 14.7862 13.6306 13.5004 14.7808C12.2145 15.9309 10.537 16.5451 8.81247 16.4971C7.08794 16.4491 5.44724 15.7425 4.22734 14.5226C3.00743 13.3027 2.30093 11.662 2.25292 9.93751C2.20491 8.21298 2.81905 6.53551 3.96919 5.24963C5.11934 3.96375 6.71819 3.16706 8.43738 3.02319C10.1566 2.87931 11.8656 3.39917 13.2135 4.476ZM8.99998 15C9.68942 15 10.3721 14.8642 11.0091 14.6004C11.646 14.3365 12.2248 13.9498 12.7123 13.4623C13.1998 12.9748 13.5865 12.396 13.8504 11.7591C14.1142 11.1221 14.25 10.4394 14.25 9.75C14.25 9.06056 14.1142 8.37787 13.8504 7.74091C13.5865 7.10395 13.1998 6.5252 12.7123 6.03769C12.2248 5.55018 11.646 5.16347 11.0091 4.89963C10.3721 4.6358 9.68942 4.5 8.99998 4.5C7.6076 4.5 6.27224 5.05312 5.28767 6.03769C4.30311 7.02226 3.74998 8.35761 3.74998 9.75C3.74998 11.1424 4.30311 12.4777 5.28767 13.4623C6.27224 14.4469 7.6076 15 8.99998 15ZM8.24998 6H9.74998V10.5H8.24998V6ZM5.99998 0.75H12V2.25H5.99998V0.75Z" fill="#141414"/>
</svg>
