<svg width="20" height="20" viewBox="0 0 20 20" fill="none" xmlns="http://www.w3.org/2000/svg">
<path d="M12 9.12042e-07C13.8299 -0.000872552 15.6049 0.625667 17.0288 1.77513C18.4527 2.92458 19.4395 4.52748 19.8246 6.31647C20.2097 8.10546 19.9699 9.97241 19.145 11.6059C18.3202 13.2395 16.9602 14.5408 15.292 15.293C14.7587 16.4719 13.9475 17.5039 12.9278 18.3004C11.9082 19.097 10.7105 19.6343 9.4376 19.8663C8.16467 20.0984 6.85446 20.0182 5.61933 19.6327C4.3842 19.2472 3.261 18.5678 2.34608 17.6529C1.43115 16.738 0.751797 15.6148 0.366279 14.3796C-0.0192388 13.1445 -0.0994159 11.8343 0.132624 10.5614C0.364663 9.28844 0.901995 8.0908 1.69854 7.07114C2.49508 6.05148 3.52705 5.24024 4.70596 4.707C5.34011 3.30389 6.36555 2.1135 7.65931 1.27861C8.95307 0.443714 10.4602 -0.000237065 12 9.12042e-07ZM7.99996 6C7.21203 6 6.43182 6.1552 5.70386 6.45672C4.97591 6.75825 4.31447 7.20021 3.75732 7.75736C3.20017 8.31451 2.75822 8.97595 2.45669 9.7039C2.15516 10.4319 1.99996 11.2121 1.99996 12C1.99996 12.7879 2.15516 13.5681 2.45669 14.2961C2.75822 15.0241 3.20017 15.6855 3.75732 16.2426C4.31447 16.7998 4.97591 17.2417 5.70386 17.5433C6.43182 17.8448 7.21203 18 7.99996 18C9.59126 18 11.1174 17.3679 12.2426 16.2426C13.3678 15.1174 14 13.5913 14 12C14 10.4087 13.3678 8.88258 12.2426 7.75736C11.1174 6.63214 9.59126 6 7.99996 6ZM8.99996 7V8H11V10H6.99996C6.87502 9.99977 6.75451 10.0463 6.66218 10.1305C6.56985 10.2147 6.51238 10.3304 6.50109 10.4548C6.4898 10.5793 6.52551 10.7034 6.60118 10.8028C6.67686 10.9023 6.78702 10.9697 6.90996 10.992L6.99996 11H8.99996C9.663 11 10.2989 11.2634 10.7677 11.7322C11.2366 12.2011 11.5 12.837 11.5 13.5C11.5 14.163 11.2366 14.7989 10.7677 15.2678C10.2989 15.7366 9.663 16 8.99996 16V17H6.99996V16H4.99996V14H8.99996C9.12491 14.0002 9.24541 13.9537 9.33775 13.8695C9.43008 13.7853 9.48755 13.6696 9.49884 13.5452C9.51013 13.4207 9.47442 13.2966 9.39874 13.1972C9.32307 13.0977 9.21291 13.0303 9.08996 13.008L8.99996 13H6.99996C6.33692 13 5.70104 12.7366 5.2322 12.2678C4.76336 11.7989 4.49996 11.163 4.49996 10.5C4.49996 9.83696 4.76336 9.20107 5.2322 8.73223C5.70104 8.26339 6.33692 8 6.99996 8V7H8.99996ZM12 2C11.1526 1.99901 10.3148 2.17794 9.54179 2.52496C8.76879 2.87198 8.07829 3.37918 7.51596 4.013C8.64623 3.94439 9.77818 4.1165 10.837 4.51795C11.8958 4.9194 12.8573 5.54105 13.6579 6.34178C14.4586 7.14252 15.0801 8.1041 15.4814 9.16293C15.8827 10.2218 16.0547 11.3537 15.986 12.484C16.8952 11.6756 17.5372 10.6099 17.8268 9.42831C18.1164 8.24668 18.04 7.00492 17.6076 5.86772C17.1752 4.73053 16.4074 3.75164 15.4059 3.06088C14.4044 2.37013 13.2166 2.00014 12 2Z" fill="#141414"/>
</svg>
