<svg width="19" height="21" viewBox="0 0 19 21" fill="none" xmlns="http://www.w3.org/2000/svg">
<path d="M9.83317 13.0644V14.9802C9.00352 14.6869 8.11559 14.5969 7.24396 14.7179C6.37233 14.8388 5.54244 15.1671 4.82398 15.6753C4.10553 16.1834 3.51949 16.8565 3.11507 17.638C2.71065 18.4196 2.49967 19.2868 2.49984 20.1667L0.666504 20.1658C0.66622 19.0465 0.922182 17.9419 1.41478 16.9368C1.90737 15.9316 2.62353 15.0526 3.50837 14.367C4.39321 13.6815 5.42325 13.2075 6.51956 12.9816C7.61587 12.7556 8.74936 12.7837 9.83317 13.0635V13.0644ZM7.99984 11.9167C4.96109 11.9167 2.49984 9.4555 2.49984 6.41675C2.49984 3.378 4.96109 0.916748 7.99984 0.916748C11.0386 0.916748 13.4998 3.378 13.4998 6.41675C13.4998 9.4555 11.0386 11.9167 7.99984 11.9167ZM7.99984 10.0834C10.0257 10.0834 11.6665 8.44258 11.6665 6.41675C11.6665 4.39091 10.0257 2.75008 7.99984 2.75008C5.974 2.75008 4.33317 4.39091 4.33317 6.41675C4.33317 8.44258 5.974 10.0834 7.99984 10.0834ZM15.3332 15.5834H18.0832V17.4167H15.3332V20.6251L10.7498 16.5001L15.3332 12.3751V15.5834Z" fill="#141414"/>
</svg>
